<svg width="24" height="24" viewBox="0 0 24 24" fill="none" xmlns="http://www.w3.org/2000/svg">
<path d="M16.1083 8.53303L4 21.5H5.70179L16.9694 9.45184C16.979 9.44198 16.9868 9.43012 16.992 9.41699C16.9973 9.40385 17 9.38971 17 9.37542C17 9.36113 16.9973 9.34699 16.992 9.33385C16.9868 9.32072 16.979 9.30886 16.9694 9.299L16.2546 8.53303C16.2451 8.52258 16.2337 8.51427 16.2212 8.5086C16.2086 8.50292 16.1951 8.5 16.1814 8.5C16.1678 8.5 16.1543 8.50292 16.1417 8.5086C16.1292 8.51427 16.1178 8.52258 16.1083 8.53303Z" fill="#EC6608"/>
<path d="M3.93089 12.4665L13 2.5H11.2172L3.03058 11.4777C3.01098 11.4996 3 11.529 3 11.5597C3 11.5904 3.01098 11.6199 3.03058 11.6418L3.78114 12.4665C3.80113 12.488 3.82802 12.5 3.85601 12.5C3.88401 12.5 3.9109 12.488 3.93089 12.4665Z" fill="#EC6608"/>
<path d="M18.0495 10.5352L7 21.5H8.80991L18.969 11.4386C18.9889 11.4185 19 11.3915 19 11.3633C19 11.3352 18.9889 11.3082 18.969 11.2881L18.207 10.5352C18.1971 10.5241 18.185 10.5153 18.1714 10.5092C18.1579 10.5031 18.1431 10.5 18.1283 10.5C18.1134 10.5 18.0986 10.5031 18.0851 10.5092C18.0715 10.5153 18.0594 10.5241 18.0495 10.5352Z" fill="#EC6608"/>
<path d="M20.0793 12.5235L11 21.5H12.7803L20.9695 13.4162C20.989 13.3965 21 13.37 21 13.3424C21 13.3148 20.989 13.2883 20.9695 13.2686L20.2218 12.5305C20.2031 12.5123 20.1782 12.5014 20.1519 12.5001C20.1256 12.4988 20.0998 12.5072 20.0793 12.5235Z" fill="#EC6608"/>
<path d="M5.0357 12.7149L5.79706 13.4692C5.8174 13.4889 5.84473 13.5 5.8732 13.5C5.90167 13.5 5.929 13.4889 5.94934 13.4692L17 2.5H15.1872L5.0357 12.5569C5.02447 12.5668 5.01548 12.579 5.00933 12.5926C5.00318 12.6062 5 12.621 5 12.6359C5 12.6508 5.00318 12.6656 5.00933 12.6792C5.01548 12.6928 5.02447 12.705 5.0357 12.7149Z" fill="#EC6608"/>
<path d="M7.03183 14.7022L7.74774 15.4671C7.75712 15.4775 7.76837 15.4858 7.78082 15.4914C7.79327 15.4971 7.80666 15.5 7.82018 15.5C7.83371 15.5 7.8471 15.4971 7.85955 15.4914C7.87199 15.4858 7.88325 15.4775 7.89263 15.4671L20 2.5H18.2955L7.03183 14.5437C7.02178 14.5539 7.01377 14.5662 7.00829 14.5798C7.00282 14.5935 7 14.6081 7 14.6229C7 14.6378 7.00282 14.6524 7.00829 14.6661C7.01377 14.6797 7.02178 14.692 7.03183 14.7022Z" fill="#EC6608"/>
</svg>
